<?xml version="1.0" encoding="utf-8"?>
<svg version="1.1" id="svg1" width="1024" height="1024" viewBox="0 0 1024 1024" xmlns="http://www.w3.org/2000/svg">
  <g id="g1" style="display:inline">
    <path style="display:inline;fill:#7eb1c1;fill-opacity:1" d="m 340.28372,497.51538 c -4.61828,0 -11.54571,0 -15.95407,0.20992 -4.40837,0.20992 -6.29767,0.62977 -7.66216,0.83969 -1.3645,0.20992 -2.20419,0.20992 -3.04387,0.41984 -0.83969,0.20992 -1.67938,0.62977 -2.62403,0.94465 -0.94465,0.31488 -1.99426,0.52481 -2.72898,0.83969 -0.73473,0.31488 -1.15458,0.73473 -1.57442,0.94465 -0.41985,0.20992 -0.83969,0.20992 -1.8893,0.62976 -1.04961,0.41984 -2.72899,1.25953 -4.30341,2.30914 -1.57441,1.04961 -3.04387,2.30915 -4.19844,3.14884 -1.15457,0.83969 -1.99426,1.25953 -3.98852,3.67364 -1.99426,2.4141 -5.14309,6.82246 -6.50758,11.86059 -1.3645,5.03813 -0.94465,10.70603 -0.41985,15.32432 0.52481,4.61828 1.15457,8.18696 1.8893,10.60106 0.73473,2.41411 1.57442,3.67364 1.99427,4.40836 0.41984,0.73473 0.41984,0.94466 1.46945,1.57442 1.04961,0.62977 3.14883,1.67938 5.14309,2.72899 1.99426,1.04961 3.88356,2.09922 5.56294,2.93891 1.67937,0.83969 3.14883,1.46945 4.09348,1.78434 0.94465,0.31488 1.36449,0.31488 2.20418,0.83969 0.83969,0.5248 2.09922,1.57441 3.35875,2.30914 1.25953,0.73472 2.51907,1.15457 3.14884,1.46945 0.62976,0.31489 0.62976,0.52481 0.83968,0.62977 0.20992,0.10496 0.62977,0.10496 0.83969,0.5248 0.20992,0.41985 0.20992,1.25954 0.31488,3.56868 0.10496,2.30914 0.31489,6.08774 0.94465,9.55146 0.62977,3.46371 1.67938,6.61254 2.51907,8.50184 0.83969,1.8893 1.46945,2.51907 1.99426,3.25379 0.5248,0.73473 0.94465,1.57442 1.36449,1.99427 0.41985,0.41984 0.83969,0.41984 1.67938,0.73472 0.83969,0.31489 2.09922,0.94465 3.67363,1.8893 1.57442,0.94465 3.46372,2.20418 5.45798,3.14883 1.99426,0.94465 4.09348,1.57441 5.56294,1.8893 1.46945,0.31488 2.30914,0.31488 3.35875,0.5248 1.04961,0.20993 2.30914,0.62977 6.7175,0.8397 4.40837,0.20992 11.96557,0.20992 23.1964,0.20992 11.23083,0 26.1353,0 37.9959,0 11.8606,0 20.67732,0 26.76506,0 6.08775,0 9.4465,0 11.54572,0.20992 2.09922,0.20992 2.93891,0.62977 7.34727,0.83969 4.40837,0.20992 12.38541,0.20992 26.03034,0.20992 13.64494,0 32.95777,0 47.9672,0 15.00943,0 25.71546,0 33.6925,0 7.97704,0 13.22509,0 21.62197,-0.10496 8.39689,-0.10496 19.94261,-0.31489 30.12383,-0.41985 10.18122,-0.10496 18.99795,-0.10496 25.40057,-0.10496 6.40263,0 10.39115,0 12.70029,-0.20992 2.30914,-0.20992 2.93891,-0.62977 4.30341,-1.15457 1.36449,-0.52481 3.46371,-1.15457 5.98277,-1.67938 2.51907,-0.5248 5.45798,-0.94465 9.55146,-1.36449 4.09348,-0.41984 9.34153,-0.83969 12.17548,-1.04961 2.83395,-0.20992 3.25379,-0.20992 3.67364,-0.41984 0.41984,-0.20993 0.83968,-0.62977 1.57441,-1.04962 0.73473,-0.41984 1.78434,-0.83969 3.04387,-1.78434 1.25953,-0.94464 2.72899,-2.4141 4.30341,-3.77859 1.57441,-1.3645 3.25379,-2.62403 4.19844,-3.46372 0.94465,-0.83969 1.15457,-1.25953 1.57442,-1.57441 0.41984,-0.31489 1.0496,-0.52481 2.20417,-1.25953 1.15458,-0.73473 2.83395,-1.99427 4.19845,-2.83395 1.36449,-0.83969 2.4141,-1.25954 3.35875,-2.09922 0.94465,-0.83969 1.78434,-2.09923 2.72899,-4.09349 0.94465,-1.99426 1.99426,-4.72324 2.51906,-6.50758 0.52481,-1.78434 0.52481,-2.62403 0.62977,-3.46372 0.10496,-0.83968 0.31488,-1.67937 0.73472,-2.72898 0.41985,-1.04961 1.04962,-2.30915 1.46946,-3.35876 0.41984,-1.04961 0.62977,-1.8893 0.83969,-2.4141 0.20993,-0.52481 0.41985,-0.73473 0.52481,-1.25953 0.10496,-0.52481 0.10496,-1.3645 0.31488,-2.09922 0.20992,-0.73473 0.62977,-1.3645 0.83969,-2.20418 0.20992,-0.83969 0.20992,-1.88931 0.41984,-2.51907 0.20992,-0.62977 0.62977,-0.83969 0.83969,-1.8893 0.20992,-1.04961 0.20992,-2.93891 0.31488,-4.09348 0.10496,-1.15457 0.31489,-1.57442 0.31489,-4.30341 0,-2.72898 -0.20993,-7.76711 -0.52481,-10.60106 -0.31488,-2.83395 -0.73473,-3.46371 -1.04961,-4.3034 -0.31488,-0.83969 -0.52481,-1.8893 -1.46946,-3.7786 -0.94465,-1.8893 -2.62403,-4.61829 -3.67363,-6.08774 -1.04961,-1.46945 -1.46946,-1.67938 -2.20418,-2.41411 -0.73473,-0.73472 -1.78434,-1.99426 -2.83395,-3.46371 -1.04961,-1.46946 -2.09922,-3.14883 -2.72899,-3.98852 -0.62977,-0.83969 -0.83969,-0.83969 -1.25953,-1.04961 -0.41985,-0.20992 -1.04961,-0.62977 -1.78434,-1.15457 -0.73473,-0.52481 -1.57442,-1.15458 -2.09922,-1.67938 -0.5248,-0.5248 -0.73473,-0.94465 -1.57442,-1.46945 -0.83968,-0.52481 -2.30914,-1.15458 -3.25379,-1.46946 -0.94465,-0.31488 -1.36449,-0.31488 -2.30914,-0.73472 -0.94465,-0.41985 -2.41411,-1.25954 -3.88356,-1.67939 -1.46946,-0.41984 -2.93891,-0.41984 -4.3034,-0.62976 -1.3645,-0.20992 -2.62403,-0.62977 -4.61829,-1.15457 -1.99426,-0.52481 -4.72325,-1.15457 -7.76712,-1.78434 -3.04387,-0.62977 -6.40262,-1.25953 -8.39688,-1.57442 -1.99426,-0.31488 -2.62403,-0.31488 -4.82821,-0.73472 -2.20418,-0.41985 -5.98278,-1.25953 -8.50184,-1.78434 -2.51907,-0.5248 -3.7786,-0.73473 -4.82821,-1.04961 -1.04961,-0.31488 -1.8893,-0.73473 -2.51907,-0.94465 -0.62976,-0.20992 -1.04961,-0.20992 -1.25953,-0.31488 -0.20992,-0.10496 -0.20992,-0.31489 -0.41984,-0.52481 -0.20993,-0.20992 -0.62977,-0.41984 -1.15458,-0.5248 -0.5248,-0.10496 -1.15457,-0.10496 -1.46945,-0.20993 -0.31488,-0.10496 -0.31488,-0.31488 -1.36449,-0.5248 -1.04962,-0.20992 -3.14884,-0.41985 -4.72325,-0.73473 -1.57442,-0.31488 -2.62403,-0.73473 -3.67364,-0.94465 -1.04961,-0.20992 -2.09922,-0.20992 -2.72898,-0.31488 -0.62977,-0.10496 -0.83969,-0.31488 -1.78434,-0.62977 -0.94465,-0.31488 -2.62403,-0.73473 -5.56294,-0.94465 -2.93891,-0.20992 -7.13735,-0.20992 -11.12587,-0.10496 -3.98852,0.10496 -7.76712,0.31489 -10.60107,0.52481 -2.83395,0.20992 -4.72324,0.41984 -7.66215,0.5248 -2.93891,0.10496 -6.92743,0.10496 -11.54572,0.62977 -4.61829,0.5248 -9.86634,1.57442 -12.59533,2.20418 -2.72898,0.62977 -2.9389,0.83969 -3.46371,1.04961 -0.52481,0.20992 -1.36449,0.41985 -1.99426,0.73473 -0.62976,0.31488 -1.04961,0.73473 -3.04387,1.67938 -1.99426,0.94465 -5.56294,2.41411 -8.29192,3.67364 -2.72899,1.25953 -4.61829,2.30914 -6.40262,3.04387 -1.78434,0.73472 -3.46372,1.15457 -4.93317,1.36449 -1.46946,0.20992 -2.72899,0.20992 -4.19845,0.5248 -1.46945,0.31488 -3.14883,0.94465 -4.72324,1.25954 -1.57442,0.31488 -3.04388,0.31488 -3.77861,0.41984 -0.73472,0.10496 -0.73472,0.31488 -1.04961,0.41984 -0.31488,0.10496 -0.94464,0.10496 -2.4141,0.41984 -1.46945,0.31489 -3.7786,0.94465 -5.98278,1.25954 -2.20418,0.31488 -4.3034,0.31488 -8.18696,0.31488 -3.88356,0 -9.55146,0 -15.00943,0 -5.45797,0 -10.70603,0 -14.58959,0 -3.88355,0 -6.40262,0 -8.18696,-0.20992 -1.78434,-0.20992 -2.83395,-0.62977 -4.30341,-0.94465 -1.46945,-0.31488 -3.35874,-0.52481 -4.40835,-0.73473 -1.04962,-0.20992 -1.25954,-0.41984 -3.67364,-0.41984 -2.41411,0 -7.03239,0.20992 -9.86634,0.5248 -2.83395,0.31489 -3.88356,0.73473 -5.35301,1.15458 -1.46946,0.41984 -3.35876,0.83969 -4.51333,1.04961 -1.15457,0.20992 -1.57441,0.20992 -2.20418,0.62976 -0.62977,0.41985 -1.46946,1.25954 -4.40836,1.67938 -2.93891,0.41984 -7.97704,0.41984 -12.3854,0.41984 -4.40837,0 -8.18697,0 -10.18123,-0.10496 -1.99426,-0.10496 -2.20418,-0.31488 -2.83395,-0.41984 -0.62977,-0.10496 -1.67938,-0.10496 -2.62403,-0.31488 -0.94464,-0.20992 -1.78433,-0.62977 -2.72898,-0.83969 -0.94465,-0.20992 -1.99426,-0.20992 -2.93891,-0.41984 -0.94465,-0.20993 -1.78434,-0.62977 -2.51906,-0.8397 -0.73473,-0.20992 -1.3645,-0.20992 -2.30915,-0.41984 -0.94465,-0.20992 -2.20418,-0.62977 -3.04387,-0.83969 -0.83969,-0.20992 -1.25953,-0.20992 -1.67937,-0.41984 -0.41985,-0.20992 -0.8397,-0.62977 -4.09349,-0.83969 -3.25379,-0.20992 -9.34153,-0.20992 -15.74415,-0.20992 -6.40263,0 -13.12014,0 -17.31858,-0.20992 -4.19844,-0.20992 -5.87782,-0.62977 -7.87208,-0.83969 -1.99426,-0.20992 -4.3034,-0.20992 -8.92169,-0.20992 z" id="path130"/>
    <g id="layer1" style="display:inline">
      <path style="display:inline;fill:#4b8ca2;fill-opacity:1" d="m 553.00331,551.55605 c -0.74219,-0.70508 -2.22656,-0.70508 -3.1914,-0.59375 -0.96485,0.11133 -1.41016,0.33398 -1.66991,0.44531 -0.25976,0.11133 -0.334,0.11133 -0.40822,0.44531 -0.0742,0.33399 -0.14843,1.00195 0.18555,2.33789 0.33399,1.33594 1.07617,3.33984 1.5957,4.34179 0.51953,1.00195 0.81641,1.00195 1.00195,0.92774 0.18554,-0.0742 0.25977,-0.22266 0.55664,-0.44532 0.29688,-0.22265 0.81641,-0.51953 1.07618,-0.70506 0.25976,-0.18554 0.25976,-0.25978 0.33398,-0.40822 0.0742,-0.14843 0.22265,-0.37109 0.37109,-0.55664 0.14844,-0.18554 0.29688,-0.33398 0.3711,-0.48242 0.0742,-0.14844 0.0742,-0.29687 0.14844,-0.59374 0.0742,-0.29688 0.22265,-0.74219 0.29687,-1.66992 0.0742,-0.92774 0.0742,-2.3379 -0.66797,-3.04297 z" id="path88"/>
      <path style="display:inline;fill:#4b8ca2;fill-opacity:1" d="m 522.94475,601.57943 c -0.74219,-0.11133 -2.67187,-0.0371 -4.00781,0.18555 -1.33594,0.22265 -2.07812,0.59375 -2.63476,0.8164 -0.55664,0.22266 -0.92774,0.29688 -1.07618,0.63086 -0.14843,0.33398 -0.0742,0.92773 0.7793,1.29883 0.85352,0.37109 2.48633,0.51953 3.33984,0.55665 0.8535,0.0371 0.92774,-0.0371 1.03907,-0.0742 0.11132,-0.0371 0.25976,-0.0371 0.55664,-0.33398 0.29687,-0.29688 0.74218,-0.89063 1.07616,-1.33594 0.33399,-0.44531 0.55665,-0.74219 0.89063,-1.03906 0.33398,-0.29688 0.7793,-0.59375 0.0371,-0.70508 z" id="path89"/>
      <path style="display:inline;fill:#4b8ca2;fill-opacity:1" d="m 568.25525,601.76498 c -1.5957,-0.0742 -3.82226,0 -5.00976,0.0371 -1.1875,0.0371 -1.33594,0.0371 -1.70703,0.66797 -0.37109,0.63085 -0.96484,1.89257 -1.15039,2.74609 -0.18555,0.85351 0.0371,1.29882 0.18554,1.6328 0.14844,0.33398 0.22266,0.55665 0.70508,1.00196 0.48242,0.44531 1.37305,1.11328 2.07812,1.44727 0.70508,0.33398 1.22461,0.33398 1.5957,0.4082 0.3711,0.0742 0.59376,0.22266 0.89063,0.29687 0.29688,0.0742 0.66797,0.0742 1.00196,0.14844 0.33398,0.0742 0.63085,0.22265 1.37303,0.29687 0.74219,0.0742 1.92969,0.0742 2.56055,0.14844 0.63086,0.0742 0.70508,0.22265 1.00195,0.29687 0.29688,0.0742 0.81641,0.0742 1.70703,0.0742 0.89063,0 2.15234,0 3.45117,0.29688 1.29883,0.29687 2.63476,0.89062 3.5625,1.18749 0.92773,0.29688 1.44726,0.29688 1.85547,0.3711 0.4082,0.0742 0.70507,0.22265 1.48436,0.29687 0.7793,0.0742 2.04102,0.0742 3.59962,0.0742 1.55859,0 3.41405,0 4.82421,0 1.41015,0 2.37499,0 3.1914,-0.11133 0.81641,-0.11133 1.48437,-0.33398 1.96679,-0.44531 0.48243,-0.11133 0.7793,-0.11133 1.15039,-0.18555 0.3711,-0.0742 0.81641,-0.22265 3.78515,-0.37109 2.96875,-0.14844 8.46093,-0.29687 13.24803,-0.37109 4.78711,-0.0742 8.86914,-0.0742 11.20703,-0.0742 2.33789,0 2.93164,0 3.30273,0.0371 0.37108,0.0371 0.51953,0.11133 1.07617,0.14844 0.55664,0.0371 1.52148,0.0371 2.26367,-0.33399 0.74219,-0.37109 1.26172,-1.11328 1.74414,-1.74414 0.48242,-0.63085 0.92773,-1.15039 1.2246,-1.44726 0.29687,-0.29687 0.44532,-0.3711 0.51953,-0.7793 0.0742,-0.4082 0.0742,-1.15039 -0.11133,-1.85546 -0.18554,-0.70508 -0.55664,-1.37305 -0.74218,-1.78125 -0.18555,-0.4082 -0.18555,-0.55664 -0.37109,-0.74219 -0.18555,-0.18554 -0.55664,-0.4082 -1.44726,-0.59375 -0.89063,-0.18555 -2.30078,-0.33398 -4.97265,-0.11133 -2.67188,0.22266 -6.60547,0.81641 -9.64844,1.11329 -3.04296,0.29687 -5.1953,0.29687 -6.93944,0.4082 -1.74414,0.11133 -3.08007,0.33398 -5.26952,0.44531 -2.18946,0.11133 -5.23242,0.11133 -8.68359,0.11133 -3.45117,0 -7.31054,0 -10.31639,-0.0371 -3.00586,-0.0371 -5.1582,-0.11133 -6.60546,-0.25977 -1.44727,-0.14844 -2.18946,-0.37109 -3.11719,-0.55664 -0.92773,-0.18555 -2.04101,-0.33398 -2.74609,-0.48242 -0.70508,-0.14844 -1.00195,-0.29687 -1.63281,-0.44531 -0.63086,-0.14844 -1.5957,-0.29687 -2.56055,-0.48242 -0.96484,-0.18555 -1.92968,-0.4082 -3.52538,-0.48242 z" id="path90"/>
      <path style="display:inline;fill:#4b8ca2;fill-opacity:1" d="M 333.173 479.331 C 333.041 479.567 333.094 480.039 333.12 480.38 C 333.146 480.722 333.146 480.932 333.173 481.063 C 333.199 481.194 333.251 481.246 333.278 481.351 C 333.304 481.456 333.304 481.614 333.33 481.692 C 333.356 481.771 333.409 481.771 333.435 481.876 C 333.461 481.981 333.461 482.191 333.488 482.322 C 333.514 482.453 333.566 482.506 333.592 482.742 C 333.619 482.978 333.619 483.398 333.671 483.661 C 333.724 483.923 333.829 484.028 333.881 484.264 C 333.934 484.5 333.934 484.868 333.986 485.156 C 334.039 485.445 334.143 485.655 334.196 485.865 C 334.248 486.075 334.248 486.285 334.301 486.494 C 334.353 486.704 334.458 486.914 334.511 487.15 C 334.563 487.387 334.563 487.649 334.616 487.938 C 334.668 488.226 334.773 488.541 334.826 488.804 C 334.878 489.066 334.878 489.276 334.904 489.381 C 334.931 489.486 334.983 489.486 335.009 489.591 C 335.036 489.696 335.036 489.906 335.088 490.063 C 335.141 490.221 334.973 490.326 335.026 490.693 C 335.078 491.06 335.351 491.69 335.377 492.267 C 335.403 492.845 335.455 493.369 335.508 493.658 C 335.56 493.947 335.613 493.999 335.665 494.34 C 335.718 494.681 335.77 495.311 335.797 495.784 C 335.823 496.256 335.823 496.571 335.902 496.964 C 335.98 497.358 336.138 497.83 336.216 498.198 C 336.295 498.565 336.295 498.827 336.348 499.064 C 336.4 499.3 336.505 499.51 336.584 499.825 C 336.662 500.139 336.715 500.559 336.846 501.005 C 336.977 501.451 337.187 501.924 337.292 502.317 C 337.397 502.711 337.397 503.026 337.476 503.446 C 337.555 503.866 337.712 504.39 337.817 504.679 C 337.922 504.968 337.975 505.02 338.001 505.178 C 338.027 505.335 338.027 505.597 338.079 505.834 C 338.132 506.07 338.237 506.28 338.316 506.752 C 338.394 507.224 338.447 507.959 338.526 508.353 C 338.604 508.746 338.709 508.799 338.762 509.009 C 338.814 509.219 338.814 509.586 338.893 509.901 C 338.972 510.216 339.129 510.478 339.208 510.898 C 339.286 511.318 339.286 511.895 339.313 512.236 C 339.339 512.577 339.391 512.682 339.418 512.892 C 339.444 513.102 339.444 513.417 339.47 513.574 C 339.496 513.732 339.549 513.732 339.575 513.837 C 339.601 513.942 339.601 514.152 339.628 514.362 C 339.654 514.572 339.706 514.781 339.759 514.913 C 339.811 515.044 339.864 515.096 339.916 515.595 C 339.969 516.093 340.021 517.038 340.074 517.51 C 340.126 517.983 340.179 517.983 340.205 518.219 C 340.231 518.455 340.231 518.927 340.284 519.295 C 340.336 519.662 340.441 519.925 340.52 520.948 C 340.599 521.971 340.651 523.756 340.651 524.674 C 340.651 525.592 340.598 525.645 340.572 526.222 C 340.546 526.8 340.546 527.902 340.651 528.584 C 340.756 529.266 340.966 529.528 341.071 529.87 C 341.176 530.211 341.176 530.631 341.018 531.024 C 340.861 531.418 340.546 531.785 340.362 532.126 C 340.179 532.467 340.126 532.782 340.047 532.966 C 339.969 533.15 339.864 533.202 339.811 533.36 C 339.759 533.517 339.759 533.779 339.706 534.016 C 339.654 534.252 339.549 534.462 339.496 534.724 C 339.444 534.986 339.444 535.301 339.391 535.59 C 339.339 535.879 339.234 536.141 339.182 536.298 C 339.129 536.456 339.129 536.508 339.129 536.587 C 339.129 536.666 339.129 536.771 339.103 536.85 C 339.076 536.928 339.024 536.981 338.998 537.348 C 338.972 537.715 338.972 538.398 339.444 539.08 C 339.916 539.762 340.861 540.444 341.491 540.943 C 342.12 541.442 342.435 541.756 342.671 541.94 C 342.908 542.124 343.065 542.176 343.301 542.334 C 343.537 542.491 343.852 542.754 344.167 542.937 C 344.482 543.121 344.797 543.226 345.007 543.331 C 345.217 543.436 345.322 543.541 345.453 543.593 C 345.584 543.646 345.742 543.646 346.922 543.567 C 348.103 543.488 350.307 543.331 351.488 543.2 C 352.669 543.069 352.826 542.964 353.115 542.596 C 353.404 542.229 353.824 541.599 354.086 541.205 C 354.348 540.812 354.453 540.654 354.506 540.471 C 354.558 540.287 354.558 540.077 354.742 538.844 C 354.926 537.611 355.293 535.354 355.477 532.284 C 355.66 529.214 355.66 525.33 355.66 522.968 C 355.66 520.607 355.66 519.767 355.582 518.823 C 355.503 517.878 355.345 516.828 355.214 515.884 C 355.083 514.939 354.978 514.099 354.847 513.443 C 354.716 512.787 354.558 512.315 354.453 511.816 C 354.348 511.318 354.296 510.793 354.191 510.189 C 354.086 509.586 353.928 508.904 353.85 508.405 C 353.771 507.907 353.771 507.592 353.719 507.277 C 353.666 506.962 353.561 506.647 353.351 505.886 C 353.141 505.125 352.826 503.918 352.564 503.052 C 352.302 502.186 352.092 501.661 351.96 501.242 C 351.829 500.822 351.777 500.507 351.567 500.061 C 351.357 499.615 350.99 499.037 350.281 497.883 C 349.573 496.728 348.523 494.996 347.762 493.789 C 347.001 492.582 346.529 491.9 345.978 491.034 C 345.427 490.168 344.797 489.119 344.43 488.463 C 344.062 487.807 343.957 487.544 343.826 487.334 C 343.695 487.124 343.537 486.967 343.354 486.678 C 343.17 486.39 342.96 485.97 342.829 485.76 C 342.698 485.55 342.645 485.55 342.33 485.34 C 342.015 485.13 341.438 484.71 341.018 484.395 C 340.598 484.08 340.336 483.87 340.179 483.713 C 340.021 483.556 339.969 483.451 339.864 483.372 C 339.759 483.293 339.601 483.241 339.391 483.083 C 339.181 482.926 338.919 482.663 338.709 482.506 C 338.499 482.349 338.342 482.296 338.211 482.191 C 338.079 482.086 337.974 481.929 337.712 481.771 C 337.45 481.614 337.03 481.456 336.61 481.194 C 336.19 480.932 335.77 480.564 335.508 480.381 C 335.245 480.197 335.14 480.197 335.062 480.144 C 334.983 480.092 334.931 479.987 334.826 479.908 C 334.721 479.829 334.563 479.777 334.484 479.725 C 334.406 479.672 334.406 479.62 334.353 479.567 C 334.301 479.515 334.196 479.462 334.117 479.383 C 334.038 479.305 333.986 479.2 333.802 479.147 C 333.619 479.095 333.304 479.095 333.172 479.331 L 333.173 479.331 Z" id="path87"/>
      <path id="path49" style="display:inline;fill:#4b8ca2;stroke-width:1.08381" d="m 332.33557,475.2528 -5.65227,0.87505 c -3.10867,0.48139 -11.3302,1.75308 -18.26985,2.82517 -6.93967,1.07208 -16.91016,2.90381 -22.15765,4.07069 -5.24748,1.16691 -9.7898,1.94499 -10.09405,1.72739 -0.30427,-0.21761 -0.31904,20.63111 -0.0315,46.33234 l 0.52244,46.7301 2.78375,7.61637 c 3.90203,10.68148 10.36782,18.79983 18.68781,23.46051 6.70911,3.75829 6.89094,3.78762 25.93502,4.46845 24.58098,0.8788 327.91037,0.90149 365.90959,0.0272 l 28.76807,-0.66139 7.37932,-3.98661 c 9.00045,-4.86264 16.1462,-13.30961 19.51977,-23.07412 2.51838,-7.2892 2.59367,-8.9058 3.12876,-66.81539 l 0.25426,-27.54709 -3.02822,-0.51138 c -1.66552,-0.28128 -9.84172,-2.12435 -18.1693,-4.0957 -27.26084,-6.45333 -52.75083,-9.30161 -92.36063,-10.31882 -35.5813,-0.91374 -61.58437,1.27157 -95.89355,8.05504 -17.78341,3.51608 -49.04337,3.52584 -78.19149,0.025 -11.63778,-1.39776 -21.23989,-2.4354 -21.3375,-2.3047 -0.48732,0.65258 -9.53496,38.38669 -10.62242,44.30041 -0.69005,3.75253 -1.73871,7.4182 -2.33031,8.14594 -0.59158,0.72773 -1.07643,2.10103 -1.07643,3.05246 0,5.19655 -17.13869,7.57086 -47.94678,6.64358 -22.03613,-0.66324 -34.50116,-2.20435 -37.09566,-4.5889 -1.6823,-1.5462 -1.60951,-4.3662 0.11238,-4.3662 1.45367,0 1.46816,-4.86998 0.0395,-12.80077 -0.40355,-2.24013 -0.62731,-5.0166 -0.49683,-6.17082 0.19139,-1.69284 -0.11739,-1.87964 -1.60084,-0.96371 -1.01147,0.62451 -5.59224,2.80784 -10.17884,4.85256 -8.94099,3.98596 -15.59638,8.87038 -17.4083,12.7735 -0.6173,1.32973 -0.98234,4.07228 -0.8103,6.09583 0.64433,7.57787 14.80398,15.55532 38.1662,21.50357 13.11459,3.33911 15.93633,4.97589 8.52869,4.94575 -9.87371,-0.0401 -27.42063,-4.06992 -40.53198,-9.30736 -15.41673,-6.15838 -20.68691,-11.04626 -20.68691,-19.18526 0,-10.84491 15.83262,-22.32885 36.3879,-26.39251 6.4873,-1.28251 6.94077,-1.56134 6.15895,-3.78659 -0.46428,-1.32143 -2.07266,-8.98321 -3.5763,-17.02605 z m 261.72591,13.6099 c 7.49302,0.13449 16.8501,0.71258 24.74425,1.67511 23.88567,2.91237 44.32048,8.06558 60.55448,15.27137 22.09759,9.80847 37.8192,25.71139 37.8192,38.25686 0,9.15987 -7.94616,19.85891 -19.81156,26.67889 -6.6937,3.84741 -9.41784,4.90815 -9.41784,3.66386 0,-0.27303 2.56248,-2.18719 5.69368,-4.25253 15.12361,-9.97555 20.48465,-21.94364 14.30321,-31.92692 -6.4556,-10.42605 -23.16304,-22.28531 -40.6897,-28.8813 -18.02778,-6.7846 -45.76915,-13.15139 -69.1443,-15.87141 -14.99042,-1.74435 -18.25726,-2.41672 -17.60939,-3.62522 0.43585,-0.81304 6.06494,-1.12318 13.55797,-0.98871 z m -59.4682,14.09405 c 3.10616,-0.0119 6.32163,0.0756 9.33503,0.28182 29.75059,2.03565 60.34538,9.83825 74.37271,18.96707 5.41229,3.52224 12.72014,11.31522 14.71721,15.69411 1.89189,4.14827 1.81682,10.69915 -0.17743,15.54413 -7.90507,19.20519 -52.7286,37.2408 -114.47095,46.05733 -13.41494,1.9156 -24.01945,2.45225 -54.50792,2.76153 -20.81897,0.21122 -42.16793,-0.08 -47.44207,-0.64775 -31.40635,-3.38138 -54.92258,-7.84456 -66.68584,-12.65759 -4.99135,-2.04226 -5.19227,-2.25456 -2.22779,-2.33195 1.79224,-0.0467 8.83286,0.95246 15.6458,2.21831 77.863,14.46715 167.67344,8.43216 220.32449,-14.80319 26.84613,-11.84742 37.71365,-21.76821 35.41397,-32.33148 -1.05448,-4.84363 -7.5068,-11.98921 -14.08831,-15.60322 -14.8398,-8.14881 -46.24768,-16.19509 -73.57228,-18.84659 -6.79509,-0.65939 -12.74427,-1.63078 -13.21887,-2.15923 -1.06994,-1.19139 7.26377,-2.10774 16.58225,-2.1433 z m -68.46018,13.41444 c 8.16191,0.0356 17.85771,0.49114 24.70875,1.35008 20.00244,2.5078 35.32405,7.57666 41.75431,13.81448 4.33269,4.20301 4.09095,9.83141 -0.63876,14.82589 -9.9138,10.46881 -33.86901,18.68591 -67.59077,23.18776 -22.70356,3.03093 -48.84565,2.88524 -67.07225,-0.37501 -8.03431,-1.43713 -9.13788,-1.89696 -9.13788,-3.80934 0,-0.88044 5.05824,-1.02179 16.90755,-0.47276 39.94818,1.85102 91.1395,-5.07653 107.54113,-14.55314 5.45814,-3.15361 9.80229,-7.85935 9.80229,-10.61883 0,-8.15918 -19.17769,-14.48449 -55.51732,-18.31019 -14.93335,-1.57213 -17.68356,-2.226 -16.26287,-3.86387 0.71653,-0.82606 7.3439,-1.21053 15.50582,-1.17507 z m -76.07805,23.76962 c -0.54886,-0.008 -1.13542,0.0616 -1.62648,0.2091 -0.98212,0.29506 -0.42348,0.55585 1.24204,0.5796 1.66552,0.0238 2.46957,-0.21763 1.78617,-0.5364 -0.34169,-0.15943 -0.85287,-0.24449 -1.40173,-0.2523 z m 160.58423,14.43269 c 0.55633,0.14818 1.04096,0.58366 1.04096,1.19781 0,0.28223 -0.70773,0.51365 -1.57325,0.51365 -0.86557,0 -1.28912,-0.53142 -0.94041,-1.18188 0.28809,-0.53738 0.91639,-0.67777 1.4727,-0.52958 z m -30.33539,47.23923 c 0.35065,0.0167 0.65242,0.12485 0.82013,0.31819 0.33542,0.38668 -0.26077,0.66189 -1.32484,0.61141 -1.1759,-0.0559 -1.41442,-0.33311 -0.60919,-0.70459 0.36433,-0.16811 0.76323,-0.24167 1.1139,-0.22501 z m 44.02546,2.56604 c 0.23219,0.0462 0.55469,0.17419 0.97786,0.36139 0.83277,0.36842 1.51412,1.39947 1.51412,2.29105 0,2.2047 -1.65834,2.05306 -2.41509,-0.22046 -0.6561,-1.97113 -0.77348,-2.57072 -0.0769,-2.43198 z m 18.64246,0.78188 c 0.55518,0 1.00941,0.52367 1.00941,1.1637 0,0.64005 -0.45423,1.16372 -1.00941,1.16372 -0.55516,0 -1.0094,-0.52367 -1.0094,-1.16372 0,-0.64003 0.45424,-1.1637 1.0094,-1.1637 z m 52.48911,0 c 0.55516,0 1.0094,0.52367 1.0094,1.1637 0,0.64005 -0.45424,1.16372 -1.0094,1.16372 -0.55518,0 -1.00941,-0.52367 -1.00941,-1.16372 0,-0.64003 0.45423,-1.1637 1.00941,-1.1637 z m -58.9911,1.1637 c 0.24482,0 0.44556,0.52367 0.44556,1.16372 0,0.64003 -0.48061,1.1637 -1.06855,1.1637 -0.58794,0 -0.78868,-0.52367 -0.44556,-1.1637 0.34312,-0.64005 0.82373,-1.16372 1.06855,-1.16372 z m 20.06984,0 c 0.86551,0 1.57324,0.52367 1.57324,1.16372 0,0.64003 -0.42785,1.1637 -0.95027,1.1637 -0.5224,0 -1.23013,-0.52367 -1.57324,-1.1637 -0.34312,-0.64005 0.0847,-1.16372 0.95027,-1.16372 z m -11.99459,3.49112 c 0.24481,0 0.44555,0.52367 0.44555,1.16372 0,0.64003 -0.4806,1.1637 -1.06854,1.1637 -0.58794,0 -0.78868,-0.52367 -0.44556,-1.1637 0.34312,-0.64005 0.82373,-1.16372 1.06855,-1.16372 z"/>
    </g>
    <path id="path72" style="display:inline;fill:#6e753b;fill-opacity:1" d="M 300.984 255.178 C 300.483 255.001 301.919 259.276 304.176 264.678 C 319.601 301.595 342.81 391.683 354.021 458.154 C 357.497 478.762 357.462 478.242 355.42 477.824 C 354.378 477.611 352.48 473.408 349.855 465.5 C 341.489 440.292 328.033 417.534 310.852 399.539 C 299.015 387.141 295.259 384.374 299.475 391.154 C 304.116 398.62 312.548 416.952 317.809 431.01 C 327.836 457.808 336.485 490.144 344.4 530.434 C 346.902 543.169 346.008 542.485 362 543.887 C 367.225 544.345 375.26 544.782 379.855 544.859 L 388.211 545 L 387.855 509.127 C 387.583 481.622 388.754 473.363 387.828 473.719 C 386.363 474.281 384.43 472.524 382.965 459 C 382.339 453.225 380.517 440.391 378.914 430.479 C 377.311 420.566 376 414.096 375.488 409.757 C 374.976 405.418 374.341 398.948 373.878 398.425 C 373.415 397.903 373.746 395.8 373.049 392.5 C 372.352 389.2 369.807 379.592 367.395 371.148 C 364.982 362.705 363.227 355.441 363.494 355.01 C 363.761 354.578 363.289 354.288 362.445 354.363 C 361.38 354.458 359.749 351.444 357.107 344.5 C 347.87 320.215 335.214 296.437 322.621 279.705 C 316.586 271.687 302.493 255.71 300.984 255.178 Z M 489.412 311.631 C 488.013 311.532 478.457 317.301 472.5 322.029 C 463.245 329.375 446.191 347.517 439.176 357.48 C 427.625 373.886 412.827 398.107 409.027 411.773 C 407.408 417.598 407.609 419.767 406.689 416.25 C 406.416 415.205 406.185 415.638 406.115 417.328 C 406.051 418.884 404.892 427.884 403.539 437.328 C 400.467 458.768 397.411 489.225 395.162 520.822 L 393.432 545.068 C 393.574 545.153 393.966 545.091 393.96 545.092 L 401.965 544.492 C 412.782 543.665 422.909 542.15 424.838 541.07 C 425.687 540.595 427.329 536.091 428.641 530.637 C 431.774 517.612 438.417 495.545 442.68 484 C 450.049 464.038 459.996 445.678 471.369 431.043 C 471.992 430.242 470.7 430.657 468.5 431.965 C 451.083 442.316 435.169 460.927 425.955 481.725 C 418.629 498.26 417.681 495.139 422.488 470.322 C 428.926 437.084 437.613 406.139 446.723 384 C 455.495 362.68 471.798 334.041 482.869 320.5 C 486.017 316.65 488.99 312.849 489.477 312.053 C 489.644 311.779 489.612 311.645 489.412 311.631 Z"/>
    <path id="path97" style="display:inline;fill:#1d3b2d;stroke-width:1.03103" d="M 369.43 74 C 367.99 74 365.966 74.77 364.933 75.712 C 363.276 77.224 363.055 79.215 363.055 92.619 L 363.055 109.135 L 369.326 107.812 L 375.677 108.804 L 375.227 92.613 C 374.829 76.178 374.151 74 369.43 74 Z M 463.361 135.167 C 462.284 135.326 461.325 135.765 460.684 136.543 C 459.575 137.889 452.316 160.963 452.297 163.846 C 452.293 164.524 455.395 165.408 457.795 165.95 C 464.281 167.414 463.958 169.869 464.522 167.338 C 464.807 166.057 466.888 157.656 468.308 151.736 C 469.728 145.816 470.889 140.375 470.889 139.646 C 470.889 136.726 466.592 134.689 463.361 135.167 Z"/>
    <path id="path98" style="display: inline; fill: rgb(40, 59, 46);" d="m 314.68164,168 c -9.25616,0 -14.97517,0.48693 -18.75,1.5957 -17.04392,5.00629 -29.5953,17.18861 -34.77539,33.75391 -1.45104,4.6402 -1.64035,23.2092 -1.91211,187.65039 -0.27083,163.87623 -0.13822,183.3164 1.29492,190.5 4.50055,22.55908 20.4263,39.67424 42.45508,45.62305 6.10052,1.64743 19.08053,1.76 208.57422,1.8164 192.93883,0.0575 202.38083,-0.0231 209,-1.77539 11.79128,-3.12137 18.22442,-6.78797 26.46484,-15.08203 8.91474,-8.97277 13.15239,-16.49361 15.9668,-28.34375 2.00215,-8.43007 2.0236,-10.73733 1.76367,-192.88476 L 764.5,206.5 l -2.88672,-6.82617 c -5.86873,-13.87713 -15.35247,-23.1933 -29.37695,-28.85742 L 726.5,168.5 h -119 c -105.29056,0 -118.95383,0.1728 -118.5957,1.5 0.22261,0.825 1.11901,4.5375 1.99218,8.25 l 1.5879,6.75 h 114.2207 114.2207 l 5.73828,2.14648 c 4.09017,1.53033 7.52129,3.90022 11.94532,8.25 5.32273,5.23348 6.50496,7.08027 8.29882,12.95899 2.08219,6.82357 2.09178,7.49967 1.97266,146 -0.0658,76.52924 -0.42216,158.49461 -0.79102,182.14453 -0.64602,41.42021 -0.7531,43.20791 -2.91992,48.66406 -4.55178,11.46177 -13.82437,19.99184 -26.12695,24.03321 l -6.54297,2.14843 -182,0.17969 c -100.0996,0.0982 -191.45004,-0.11185 -203,-0.4668 -20.72287,-0.63686 -21.08579,-0.68705 -27.5,-3.70507 -12.23659,-5.75762 -20.89964,-17.75205 -23.00586,-31.85352 -0.70551,-4.72368 -0.95559,-65.20917 -0.76953,-186 l 0.27539,-179 2.87891,-6.23438 c 3.64767,-7.89742 10.32626,-14.26336 17.95898,-17.11914 C 302.07818,185.37295 305.2397,185 315.53711,185 H 328 v -8.5 -8.5 z"/>
    <path id="path104" style="display:inline;fill:#1d3b2d;stroke-width:1.05991" d="M 374.803 244.687 L 368.188 244.854 L 361.571 245.023 L 361.277 299.414 L 360.981 353.805 L 364.97 367.013 C 367.163 374.277 369.816 383.649 370.866 387.84 C 371.916 392.031 372.966 396.031 373.2 396.729 C 373.435 397.428 374.148 402.097 374.472 402.097 C 374.795 402.097 374.803 363.503 374.803 321.342 L 374.803 244.687 Z M 421.923 291.888 C 421.523 291.909 421.244 291.973 421.126 292.088 C 420.284 292.909 409.525 338.575 405.868 356.853 C 397.544 398.457 388.18 459.714 387.75 475.388 C 387.623 480.041 387.644 497.708 387.796 514.648 L 387.904 545.057 L 391.113 545.126 L 393.751 545.117 L 396.026 520.422 C 401.663 446.996 411.365 386.878 430.167 308.857 C 431.95 301.458 433.408 295.051 433.408 294.62 C 433.408 293.786 427.028 292.262 423.441 291.939 C 422.844 291.885 422.323 291.866 421.923 291.888 Z"/>
    <path id="path109" style="display:inline;fill:#1d3b2d" d="m 532.39844,231 c -20.04476,0 -23.68522,0.4836 -25.63282,3.40039 -0.40395,0.60517 -0.742,10.86178 -0.75,22.79297 -0.015,21.29172 0.0256,21.72209 2.20704,23.25 1.22237,0.85618 2.60262,1.55664 3.0664,1.55664 1.318,0 5.1315,-2.18158 5.94532,-3.40039 0.40395,-0.60517 0.742,-8.58867 0.75,-17.74219 0.0131,-14.24424 0.24382,-16.73049 1.59765,-17.25 0.86998,-0.33385 8.32536,-0.60742 16.56641,-0.60742 8.41634,0 15.8315,-0.4537 16.91797,-1.03516 2.15437,-1.15306 2.6182,-5.81782 0.89843,-9.03125 C 552.99298,231.1178 551.67269,231 532.39844,231 Z m 141.44922,0.0801 c -8.58794,-0.004 -9.95204,0.37883 -11.06641,1.61523 -2.59408,2.87815 -3.16925,6.77217 -1.28125,8.66016 1.394,1.394 4.18461,1.64453 18.37109,1.64453 11.67765,0 17.092,0.36153 17.92969,1.19922 0.83781,0.83781 1.19922,6.25661 1.19922,17.95117 0,14.89758 0.19355,16.86298 1.75,17.76953 2.4858,1.44784 4.47229,1.31316 7.02734,-0.47656 2.17831,-1.52578 2.22266,-1.98084 2.22266,-22.8457 0,-20.36347 -0.0923,-21.37111 -2.10352,-23.19336 -1.89947,-1.72111 -4.09943,-1.93396 -22.79492,-2.20899 -4.72629,-0.0695 -8.39136,-0.11403 -11.2539,-0.11523 z M 704.67969,391 c -1.20558,0.0231 -2.48977,0.36276 -3.7461,1.03516 -1.79138,0.95879 -1.93359,2.24425 -1.93359,17.41796 0,9.01066 -0.27353,17.09487 -0.60742,17.96485 C 697.87237,428.77361 695.3813,429 680.96484,429 c -13.95875,0 -17.08869,0.26825 -18.39257,1.57227 -2.04805,2.04795 -2.00804,6.28971 0.082,8.59961 C 664.15846,440.8338 666.2417,441 685.5,441 c 20.26414,0 21.27393,-0.0927 23.0957,-2.10352 1.71777,-1.89593 1.93598,-4.11232 2.22852,-22.56054 0.27639,-17.43029 0.0875,-20.82132 -1.27344,-22.89844 -0.85756,-1.3088 -2.1742,-2.10783 -3.69531,-2.35547 -0.38028,-0.0619 -0.77392,-0.0897 -1.17578,-0.082 z m -193.02735,0.0898 c -1.25896,0.0971 -2.47548,0.7333 -3.65234,1.91016 -1.87258,1.87258 -2,3.3339 -2,22.92773 v 20.92774 l 1.33588,2.62331 c 3.21687,1.27315 5.2112,1.52122 24.24224,1.52122 19.85242,0 20.34348,-0.05 21.86524,-2.22266 1.75622,-2.50722 1.98333,-5.55228 0.58008,-7.77734 -0.76009,-1.20524 -4.34318,-1.59825 -18.23438,-2 L 518.5,428.5 518,411.16602 c -0.45221,-15.67616 -0.68582,-17.46864 -2.44141,-18.75 -1.34555,-0.98228 -2.64717,-1.4233 -3.90625,-1.32618 z"/>
    <path id="path114" style="display:inline;fill:#1d3b2d" d="m 609.42578,259.72852 c -0.19328,-0.0122 -0.40516,-0.005 -0.64258,0.0254 -2.84885,0.35923 -9.46047,4.03293 -33.88476,17.75586 C 556.52939,287.83036 539.7,297.468 537.5,298.92578 l -4,2.65039 -0.26172,37.25391 c -0.1698,24.12414 0.0995,37.93297 0.76563,39.17773 1.17789,2.20092 3.78577,3.76769 43.99609,26.4336 16.22474,9.14563 30.19046,16.45562 31.0332,16.24414 0.84275,-0.21147 15.01801,-8.18107 31.5,-17.70899 16.48213,-9.52791 31.80943,-18.36798 34.06055,-19.64648 8.40934,-4.77609 7.87046,-1.87079 8.20117,-44.23828 0.27499,-35.22806 0.1766,-37.80322 -1.5,-39.25196 -0.98685,-0.85273 -16.64518,-9.76995 -34.79492,-19.8164 -18.14974,-10.04645 -34.17087,-18.9452 -35.60156,-19.77344 -0.47558,-0.27531 -0.89282,-0.48483 -1.47266,-0.52148 z m -0.42187,12.5625 c 1.08444,0.28359 13.88937,6.97066 28.45507,14.86132 17.92708,9.71157 26.49212,14.88023 26.51172,15.99414 0.016,0.90517 -2.1082,2.98382 -4.7207,4.61914 -5.07755,3.17869 -41.61157,23.87768 -46.95117,26.60157 -4.09953,2.09124 -3.91161,2.11359 -9.79883,-1.20703 -2.75,-1.55113 -14.90013,-8.36372 -27,-15.14063 -12.09987,-6.77691 -22.32028,-12.8177 -22.71289,-13.42187 -0.39261,-0.60417 -0.16761,-1.6085 0.5,-2.23243 0.66761,-0.62394 13.03263,-7.761 27.47851,-15.86132 17.56497,-9.84922 26.9197,-14.55771 28.23829,-14.21289 z M 671.64648,314 c 1.14994,0 1.36975,3.93406 1.26954,22.75 -0.0666,12.51237 -0.41353,25.63126 -0.76954,29.15234 L 671.5,372.30469 658,380.2793 c -7.42487,4.38598 -19.86428,11.74262 -27.64258,16.34765 C 622.57912,401.23212 615.7025,405 615.07617,405 c -0.62633,0 -1.35638,-0.56874 -1.62305,-1.26367 -0.26658,-0.69492 -0.36517,-13.83539 -0.21874,-29.20117 L 613.5,346.5957 l 13,-7.41015 c 7.14987,-4.07603 19.92096,-11.41096 28.37891,-16.29883 C 663.33674,317.99871 670.88193,314 671.64648,314 Z m -127.15429,0.36523 c 1.5391,-0.5906 55.19336,29.34562 57.43359,32.04493 0.9064,1.09219 1.14646,8.44194 0.94141,28.77734 -0.15148,15.02125 -0.45626,27.875 -0.67774,28.5625 -0.22149,0.6875 -0.91821,1.24719 -1.54687,1.24219 -1.15358,-0.008 -51.2186,-28.44188 -55.39258,-31.45899 -2.243,-1.62104 -2.25,-1.72058 -2.25,-30.11132 0,-24.33158 0.21746,-28.56749 1.49219,-29.05665 z"/>
    <path id="path50" style="display:inline;fill:#949467;stroke-width:1.10956;fill-opacity:1" d="m 542.07316,311.0198 -0.29719,30.95049 c -0.16361,17.02314 0.0882,31.32379 0.55941,31.77795 0.47128,0.45416 13.94687,8.25707 29.94606,17.33967 15.9992,9.08261 29.72671,16.54153 30.50548,16.57672 1.11658,0.0505 1.3532,-6.50198 1.11882,-31.02143 l -0.29719,-31.0859 -30.7677,-17.26875 z"/>
    <path id="path47" style="display:inline;fill:#6f7252;stroke-width:1.1012;fill-opacity:1" d="m 674.61804,309.80187 c -0.31619,0 -2.20285,1.01095 -4.19337,2.24555 -1.99052,1.23461 -16.2021,9.19073 -31.58006,17.68082 l -27.9601,15.43737 -0.29643,31.65196 c -0.16307,17.40859 -0.0923,31.65196 0.15579,31.65197 0.60945,0 54.97296,-30.8874 60.25637,-34.23572 l 4.19335,-2.65936 v -30.88525 c 0,-16.98717 -0.25936,-30.88734 -0.57555,-30.88734 z"/>
    <path style="fill:#6c4c27;fill-opacity:1;stroke-width:1.25953" d="M 360.931 245.605 C 358.117 244.623 353.429 241.389 350.513 238.418 C 346.072 233.893 345.008 231.801 343.962 225.534 C 342.544 217.038 342.572 143.124 343.998 130.223 C 345.131 119.97 350.458 111.879 358.791 107.755 C 364.431 104.964 373.762 104.878 378.734 107.571 C 383.014 109.889 387.854 115.859 390.527 122.117 C 393.006 127.921 393.126 130.471 393.099 176.907 C 393.074 221.302 392.869 226.055 390.777 230.647 C 385.207 242.877 372.035 249.478 360.931 245.605 L 360.931 245.605 Z" id="path131"/>
    <path style="fill:#6c4c27;fill-opacity:1;stroke-width:1.25953" d="M 426.037 297.476 C 426.037 297.476 410.608 287.192 409.104 277.593 C 407.988 270.473 407.137 270.037 411.753 248.255 C 414.215 236.638 421.224 208.455 426.474 189.057 C 429.996 176.046 430.922 174.06 435.572 169.535 C 438.717 166.474 443.223 163.713 447.05 162.501 C 453.217 160.549 453.519 160.577 461.207 163.841 C 469.881 167.522 474.54 172.57 476.712 180.637 C 478.763 188.252 477.502 194.782 464.017 246.366 C 454.726 281.908 451.716 283.545 444.152 290.713 C 439.979 294.668 433.052 298.907 426.037 297.476 Z" id="path132"/>
    <path style="fill:#f9f7f1;fill-opacity:1;stroke-width:1.25953" d="m 580.32964,319.85051 c -14.72078,-8.33852 -26.76506,-15.59787 -26.76506,-16.1319 0,-0.99926 32.06955,-19.40702 46.55993,-26.72516 l 8.14419,-4.1131 16.4167,8.40971 c 9.02918,4.62534 21.39391,11.35304 27.47717,14.95043 l 11.06048,6.54071 -2.87352,2.7613 c -3.13408,3.0117 -49.80256,29.50074 -51.93983,29.48106 -0.72325,-0.007 -13.35927,-6.83453 -28.08006,-15.17305 z" id="path133"/>
    <text style="fill: rgb(72, 132, 154); font-family: Arial, sans-serif; font-size: 28px; font-weight: 700; white-space: pre;" transform="matrix(5.762704, 0, 0, 6.016441, -1789.213161, -3672.91485)" x="379.752" y="741.967">AR</text>
  </g>
  <text style="fill: rgb(40, 59, 46); font-family: Arial, sans-serif; font-size: 28px; font-weight: 700; white-space: pre;" transform="matrix(6.707388, 0, 0, 6.104012, -729.694225, -4132.683167)" x="123.768" y="832.798">Wetlands</text>
</svg>